<svg xmlns="http://www.w3.org/2000/svg" viewBox="0 0 120 100" fill="none" stroke="currentColor" stroke-width="2" stroke-linecap="round" stroke-linejoin="round">
  <g class="feat-signed-left">
    <rect x="10" y="33" width="30" height="25" rx="2"/>
    <path d="M18 58 L14 67 L36 67 L32 58"/>
    <line x1="22" y1="67" x2="28" y2="67"/>
  </g>
  <g class="feat-signed-right">
    <rect x="80" y="33" width="30" height="25" rx="2"/>
    <path d="M88 58 L84 67 L106 67 L102 58"/>
    <line x1="92" y1="67" x2="98" y2="67"/>
  </g>
  <g class="feat-signed-file" transform="translate(48, 35)">
    <path d="M4 0 H18 L24 6 V24 H4 Z"/>
    <path d="M18 0 V6 H24"/>
    <path d="M9 14 C9 12 14 11 14 11 C14 11 19 12 19 14 C19 18 14 20 14 20 C14 20 9 18 9 14 Z" fill="currentColor" fill-opacity="0.15"/>
    <path d="M12 16 L13.5 17.5 L16 15" fill="none" stroke-width="1.2"/>
  </g>
</svg>
