<svg width="200" height="200" viewBox="0 0 100 115" xmlns="http://www.w3.org/2000/svg">
  <rect x="10" y="10" width="65" height="80" fill="#555" fill-opacity="0.5" rx="4" stroke="#888" stroke-width="1"  />
  
  <rect x="20" y="20" width="65" height="80" fill="#888" fill-opacity="0.4"  rx="4" stroke="#777" stroke-width="1" />

  <g>
    <path d="M 30 30 H 80 L 95 45 V 110 H 30 Z" fill="#FFFFFF" stroke="#333" stroke-width="1" rx="4" />
    <path d="M 80 30 V 45 H 95 L 80 30" fill="#DDD" stroke="#333" stroke-width="1" rx="2" />

    <g transform="translate(42, 55)">
      <rect x="-2" y="0" width="12" height="8" fill="#5d6cc0" rx="2" />
      
      <path d="M 4 10 V 42" stroke="#333" stroke-width="3" fill="none" stroke-linecap="round" />
      
      <line x1="4" y1="20" x2="20" y2="20" stroke="#333" stroke-width="3" stroke-linecap="round" />
      <line x1="4" y1="31" x2="25" y2="31" stroke="#555" stroke-width="3" stroke-linecap="round" />
      <line x1="4" y1="42" x2="30" y2="42" stroke="#888" stroke-width="3" stroke-linecap="round" />
      <rect x="35" y="15" width="12" height="8" fill="#333" rx="2" />
      <rect x="35" y="27" width="12" height="8" fill="#555" rx="2" />
      <rect x="35" y="38" width="12" height="8" fill="#888" rx="2" />
    </g>
  </g>
</svg>
